Simulation
nRows=38
nColumns=15
endheader
time  TH_x TH_y TH_z SC_y  SC_z  SC_x  AC_y  AC_z  AC_x  GH_y  GH_z  GH_yy  EL_x  PS_y
5.382082397003745  0.000000  0.000000  0.000000  -31.769563911385468  11.438452031490025  18.35903931126149  54.02070687749866  17.609677030701675  12.665223541013523  -2.139415797728665  62.28873809103658  4.195586126172791  13.466715161726798  120.000000
5.422247191011236  0.000000  0.000000  0.000000  -31.743124442077256  11.323505356274712  18.367063567636688  54.03468980663924  17.550625758744854  12.392689413890347  -1.9434857377559762  62.337586089230754  3.8814276110255053  13.487481071311054  120.000000
5.4624119850187265  0.000000  0.000000  0.000000  -31.59695007078063  11.189661857821042  18.230906758560177  54.03809383518065  17.476397425262373  12.033648480548523  -1.7247575869395793  62.12782150183575  3.649277404261876  13.427904419966024  120.000000
5.502576779026217  0.000000  0.000000  0.000000  -31.331600482286955  11.036427557560687  17.943935486266806  54.037187017740564  17.383417502203127  11.589786724189054  -1.485910235000669  61.642845535189  3.488598094267074  13.30409143598056  120.000000
5.542741573033708  0.000000  0.000000  0.000000  -30.951414764989035  10.86202103927498  17.502302538688983  54.03889503945197  17.267289919711523  11.065862923720026  -1.2307891844294807  60.869360059351536  3.3860434355579296  13.13822156383916  120.000000
5.582906367041199  0.000000  0.000000  0.000000  -30.465045496478023  10.663368391491883  16.905245511221327  54.0495986840724  17.122871379902236  10.469865438025428  -0.9628943816727416  59.799629100074895  3.328146294429006  12.954539531214117  120.000000
5.623071161048689  0.000000  0.000000  0.000000  -29.885677618396198  10.436252140400356  16.155470353876503  54.07390846851893  16.944587905914602  9.812965762019417  -0.6839515462107458  58.43356224884155  3.3040606108989667  12.775263462358403  120.000000
5.66323595505618  0.000000  0.000000  0.000000  -29.230871599637936  10.175749095827367  15.259494898645867  54.11385522908191  16.72703139832189  9.10941195344792  -0.39299004169238155  56.78014051874567  3.30774209017927  12.617244671657408  120.000000
5.70340074906367  0.000000  0.000000  0.000000  -28.521791295465277  9.876880441331847  14.227978478534686  54.16871986393551  16.465577936217958  8.376241405902263  -0.08599581869504075  54.857847612579725  3.339095413557086  12.490163283971656  120.000000
5.743565543071161  0.000000  0.000000  0.000000  -27.78184053553475  9.535412302016125  13.075760577673178  54.23543635966087  16.15712961929503  7.632904264747595  0.24378472065298912  52.693798323729865  3.4038804248631793  12.396578088004675  120.000000
5.7837303370786515  0.000000  0.000000  0.000000  -27.03515239693865  9.148750230448323  11.821649113500749  54.30944731609183  15.800724375094024  6.900439494454072  0.6049376778371215  50.32185228463577  3.512761699355881  12.333216013066618  120.000000
5.823895131086142  0.000000  0.000000  0.000000  -26.30515243297381  8.716883250843813  10.487631575803869  54.385605319612594  15.398100558633441  6.200051933448551  1.0062075330817006  47.78001561209919  3.680097209000402  12.292860597463692  120.000000
5.864059925093633  0.000000  0.000000  0.000000  -25.613452917336243  8.243101493678912  9.097748797741913  54.45928593204708  14.953646198287128  5.5515194258579665  1.4548886663699547  45.10755254254991  3.9225954873416997  12.266353449552717  120.000000
5.904224719101124  0.000000  0.000000  0.000000  -24.978414135973214  7.733933804023822  7.676705047397573  54.52725684956497  14.474059172508092  4.972070822779838  1.9558655152669129  42.34243602849833  4.257759940569902  12.244606878995867  120.000000
5.944389513108614  0.000000  0.000000  0.000000  -24.41420757091787  7.198796547253503  6.248953489690763  54.58825150584317  13.967974165834372  4.475698566791379  2.5103164195977543  39.51950026365422  4.703022883985092  12.220092900908927  120.000000
5.984554307116105  0.000000  0.000000  0.000000  -23.931048970855105  6.6499948809095395  4.837951839828685  54.64289246405176  13.445798906415302  4.0725302651792905  3.1145097848673293  36.66978150946883  5.2752351680109095  12.18758627588554  120.000000
6.024719101123596  0.000000  0.000000  0.000000  -23.535328722016015  6.102341751217381  3.4658693136839718  54.69301700189288  12.919612801727604  3.7681727026849314  3.7585594900848274  33.820458728293396  5.990693532055045  12.144709162548695  120.000000
6.064883895131086  0.000000  0.000000  0.000000  -23.229789968851797  5.572165654239215  2.1531495017441924  54.741171358621166  12.402846850988649  3.563775105842202  4.425871960870773  30.995173344747855  6.865188159403425  12.092350486539285  120.000000
6.1050486891385765  0.000000  0.000000  0.000000  -23.01350339662235  5.076402487852303  0.9179506578239646  54.79052389384916  11.909562743667742  3.4563211233611644  5.093487269127194  28.214284366257903  7.913817372821689  12.034871791653265  120.000000
6.145213483146067  0.000000  0.000000  0.000000  -22.881522576671674  4.630875587044211  -0.2235584506653584  54.84502754213747  11.453230122448659  3.4387528397768685  5.7330837083554735  25.495307884263795  9.150793982921634  11.980233040249662  120.000000
6.185378277153558  0.000000  0.000000  0.000000  -22.82454824787087  4.248908083706833  -1.2574932416727476  54.90995380029063  11.04601936366234  3.5014162488245764  6.314202690471196  22.853463719755908  10.587656498634326  11.939718690925647  120.000000
6.225543071161049  0.000000  0.000000  0.000000  -22.829233490683684  3.9402356908598137  -2.170945938746045  54.99207826153604  10.696809151388647  3.632390114205452  6.8073475061896085  20.302005437664263  12.231756492019832  11.927132091012343  120.000000
6.265707865168539  0.000000  0.000000  0.000000  -22.88001285568455  3.709985328939709  -2.9522096843965078  55.09850256307418  10.41032425183605  3.8178874049025966  7.183771941593636  17.85235044452191  14.087531240048767  11.957363048580072  120.000000
6.30587265917603  0.000000  0.000000  0.000000  -22.961300456303746  3.558868709527762  -3.5924153286235794  55.23523301683552  10.187619511921834  4.043801073619146  7.413442556562798  15.514251822226345  16.15970422209271  12.04461872292603  120.000000
6.346037453183521  0.000000  0.000000  0.000000  -23.059226127327943  3.4831695697232137  -4.085980068682898  55.405750017207865  10.027293301087346  4.297135979903601  7.461225403399365  13.296502961251802  18.457442264206154  12.200511816162514  120.000000
6.386202247191012  0.000000  0.000000  0.000000  -23.16291110227999  3.476659980118846  -4.431251805244282  55.61066459209645  9.926383904688045  4.566584098078005  7.280616715534799  11.207254061470366  21.001232739145745  12.432929339999133  120.000000
6.426367041198501  0.000000  0.000000  0.000000  -23.264795325343137  3.5315778777064835  -4.631422108807253  55.84980074276646  9.879293667984044  4.8408062718156595  6.81005385644009  9.25293338398428  23.826317877550583  12.74543742715053  120.000000
6.466531835205992  0.000000  0.000000  0.000000  -23.360611138987686  3.63569820769588  -4.695711389526714  56.120289547770476  9.878094342195087  5.1113071032227655  5.952871179221326  7.436240342745084  27.002539311251528  13.135566352785935  120.000000
6.506696629213483  0.000000  0.000000  0.000000  -23.449708143725314  3.7740429960532937  -4.63728735241772  56.414038276070436  9.913013336732837  5.37385306945964  4.534720909313364  5.756429390895383  30.67650761410827  13.594532254644427  120.000000
6.546861423220974  0.000000  0.000000  0.000000  -23.533639031860236  3.9346599562881575  -4.472455391661715  56.72299917911535  9.974023373050013  5.622992346659953  2.218599581988297  4.2115888848606255  35.155392259739244  14.106911097665986  120.000000
6.587026217228464  0.000000  0.000000  0.000000  -23.615391969801962  4.109542361288709  -4.220212301602211  57.039916837706464  10.051665999552206  5.850837041014709  -1.8751658051088078  2.799761628315087  41.287885909676945  14.650531476063243  120.000000
6.627191011235955  0.000000  0.000000  0.000000  -23.701307958737093  4.292293712945179  -3.8997961791546896  57.35432710724791  10.135925913589011  6.0500913320912035  -11.286386972799404  1.527668179323642  52.58332650098012  15.198153506744667  120.000000
6.667355805243446  0.000000  0.000000  0.000000  -23.799679319260484  4.477064385630375  -3.5301293666892204  57.654759122871816  10.216667965369401  6.21462740953129  -56.646185044787266  0.5407657118406423  99.64515049642553  15.720381840900824  120.000000
6.707520599250937  0.000000  0.000000  0.000000  -23.91732600823043  4.658742115610864  -3.129419584811571  57.931975333475044  10.28458101402424  6.340221709423603  -146.30201239743212  0.9798837289775794  -169.2008023818427  16.190344097799017  120.000000
6.747685393258427  0.000000  0.000000  0.000000  -24.05747199303093  4.832539757749997  -2.713421443744929  58.18018971784102  10.332103640792846  6.425909598430016  -162.8835070792153  1.935387015613562  -151.33777761408243  16.587333472518637  120.000000
6.787850187265918  0.000000  0.000000  0.000000  -24.21838905930883  4.993073540511437  -2.293750015167092  58.39689106940905  10.354681034023933  6.4741062070282815  -169.40217845810417  2.8626128946492604  -143.7563113439526  16.899317626465074  120.000000
6.828014981273408  0.000000  0.000000  0.000000  -24.39362463132569  5.135781254131763  -1.8781503311411232  58.583047360478865  10.351075718227614  6.489518413819692  -173.61869600554522  3.735685888028269  -138.68581389992445  17.124473905558116  120.000000
6.868179775280899  0.000000  0.000000  0.000000  -24.57344157375396  5.258584668365567  -1.4712126185143297  58.74305805219068  10.322629770122797  6.476849402599102  -176.94601569798573  4.554299506286404  -134.69268695704542  17.271635120883964  120.000000
